<svg width="232" height="232" viewBox="0 0 232 232" fill="none" xmlns="http://www.w3.org/2000/svg">
<g id="Group">
<g id="Group_2">
<path id="Vector" d="M115.976 0.500002C140.355 0.495037 164.11 8.204 183.84 22.5231L116 116L115.976 0.500002Z" fill="#1BFF00" stroke="white" stroke-linejoin="round"/>
<path id="Vector_2" d="M183.934 22.5908C203.65 36.9296 218.323 57.1392 225.853 80.3259C233.382 103.513 233.382 128.487 225.853 151.674C218.323 174.86 203.65 195.07 183.934 209.409C164.218 223.748 140.471 231.48 116.092 231.5L116 116L183.934 22.5908Z" fill="#FF0000" stroke="white" stroke-linejoin="round"/>
<path id="Vector_3" d="M115.977 231.5C97.7782 231.496 79.8384 227.192 63.6192 218.939C47.4 210.686 33.3606 198.717 22.6451 184.008L116 116L115.977 231.5Z" fill="#DDDF00" stroke="white" stroke-linejoin="round"/>
<path id="Vector_4" d="M22.5772 183.915C8.24235 164.196 0.514468 140.447 0.50002 116.068C0.485572 91.6896 8.1853 67.9316 22.4967 48.1958L116 116L22.5772 183.915Z" fill="#00DDFF" stroke="white" stroke-linejoin="round"/>
<path id="Vector_5" d="M22.5646 48.1024C33.2625 33.3806 47.2878 21.3951 63.4972 13.1227C79.7066 4.85037 97.6413 0.525277 115.84 0.5L116 116L22.5646 48.1024Z" fill="#FF5FE6" stroke="white" stroke-linejoin="round"/>
</g>
</g>
</svg>
